<?xml version="1.0" standalone="no"?>
<svg xmlns="http://www.w3.org/2000/svg" viewBox="0 0 148.336 98.021" width="148.336" height="98.021"><rect fill="#E53E3E" width="148.336" height="98.021" x="0" y="0"></rect><path fill="white" fill-rule="nonzero" d="M8.52 17.99L8.52 0.39Q9.73 0.49 10.27 0.49L10.27 0.49L11.80 0.49Q12.75 0.49 13.69 0.33L13.69 0.33L13.69 17.83Q13.69 22.13 11.41 24.59L11.41 24.59Q9.24 26.95 5.55 26.95L5.55 26.95Q3.01 26.95 1.29 25.94L1.29 25.94Q0.64 25.57 0 25.04L0 25.04L0 19.39L0.14 19.36Q0.96 20.64 2.06 21.46Q3.16 22.29 4.80 22.29L4.80 22.29Q8.52 22.29 8.52 17.99L8.52 17.99ZM34.73 16.21L34.73 0.39Q35.94 0.49 36.74 0.49L36.74 0.49L38.36 0.49Q39.18 0.49 40.08 0.33L40.08 0.33L40.08 16.48Q40.08 21.29 37.17 24.20L37.17 24.20Q34.41 26.95 30.25 26.95L30.25 26.95Q25.70 26.95 22.89 24.59L22.89 24.59Q19.75 21.93 19.75 16.93L19.75 16.93L19.75 0.39Q21.37 0.49 22.80 0.49Q24.24 0.49 25.18 0.33L25.18 0.33L25.18 17.19Q25.18 19.65 26.68 21.02L26.68 21.02Q28.09 22.27 30.20 22.27L30.20 22.27Q33.32 22.27 34.36 19.06L34.36 19.06Q34.73 17.91 34.73 16.21L34.73 16.21ZM62.32 1.93L62.32 1.93L61.95 7.68L61.82 7.71Q60.37 5.55 56.89 4.90L56.89 4.90Q55.80 4.69 54.79 4.69Q53.79 4.69 53.08 4.86Q52.36 5.04 51.86 5.37L51.86 5.37Q50.78 6.07 50.78 7.21L50.78 7.21Q50.78 8.69 51.72 9.43L51.72 9.43Q52.89 10.33 55.61 10.69Q58.32 11.05 59.96 11.68Q61.60 12.30 62.66 13.26L62.66 13.26Q64.65 15.06 64.65 18.34L64.65 18.34Q64.65 22.64 61.41 24.96L61.41 24.96Q58.63 26.95 54.41 26.95L54.41 26.95Q51.02 26.95 47.70 25.66L47.70 25.66Q46.60 25.23 45.78 24.67L45.78 24.67L46.00 18.14L46.07 18.09Q48.50 22.27 54.02 22.27L54.02 22.27Q57.95 22.27 59.22 20.37L59.22 20.37Q59.65 19.73 59.65 18.94Q59.65 18.14 59.39 17.63Q59.14 17.11 58.55 16.74L58.55 16.74Q57.42 16.00 54.75 15.74Q52.07 15.49 50.37 14.79Q48.67 14.08 47.66 13.05L47.66 13.05Q45.82 11.17 45.82 7.81L45.82 7.81Q45.82 4.34 48.26 2.19L48.26 2.19Q50.74 0 54.95 0Q59.16 0 62.32 1.93ZM79.32 4.86L79.32 26.58Q78.38 26.46 74.49 26.46L74.49 26.46L73.87 26.46L73.87 4.86L70 4.86Q68.28 4.86 67.97 5.04Q67.66 5.21 67.48 5.35L67.48 5.35L67.42 5.33L67.42 0.33L67.48 0.27Q68.13 0.49 70.96 0.49L70.96 0.49L83.20 0.49Q84.92 0.49 85.23 0.31Q85.55 0.14 85.72 0L85.72 0L85.78 0.02L85.78 5.02L85.72 5.08Q85.08 4.86 82.25 4.86L82.25 4.86L79.32 4.86Z" transform="translate(12.000000000000007 12) scale(1.45)"></path><path fill="white" fill-rule="nonzero" d="M5.96 26.95L5.96 26.95Q2.79 26.95 0 26.45L0 26.45L0 0.31Q2.58 0 5.99 0Q9.39 0 12.16 0.93Q14.92 1.86 16.78 3.57L16.78 3.57Q20.53 7.01 20.53 13.20L20.53 13.20Q20.53 20.14 16.35 23.73L16.35 23.73Q12.60 26.95 5.96 26.95ZM5.08 4.79L5.08 22.19Q6.35 22.42 7.62 22.42Q8.89 22.42 10.35 21.92Q11.82 21.43 12.89 20.37L12.89 20.37Q15.20 18.14 15.20 13.89L15.20 13.89Q15.20 6.89 10.10 5.29L10.10 5.29Q8.42 4.77 6.21 4.77L6.21 4.77L5.68 4.77Q5.39 4.77 5.08 4.79L5.08 4.79ZM31.37 21.78L39.34 21.78Q40.55 21.78 41.02 21.54L41.02 21.54L41.09 21.56L40.90 26.46L26.27 26.46L26.27 0.35Q26.80 0.39 27.44 0.41L27.44 0.41L28.81 0.45Q30.18 0.49 31.78 0.49L31.78 0.49Q36.25 0.49 40.63 0.33L40.63 0.33Q40.41 2.05 40.41 4.92L40.41 4.92Q40.41 5.23 40.45 5.39L40.45 5.39L40.41 5.45Q39.39 5.16 37.52 5.16L37.52 5.16L31.37 5.16L31.37 10.14L36.00 10.14Q38.14 10.14 38.57 10.02L38.57 10.02L38.63 14.84Q37.70 14.75 36.21 14.75L36.21 14.75L31.37 14.75L31.37 21.78ZM57.95 0L57.95 0Q61.60 0 64.18 1.27L64.18 1.27L64.18 7.25L64.14 7.29Q63.05 5.61 59.53 5.06L59.53 5.06Q58.50 4.88 56.91 4.88Q55.33 4.88 53.81 5.48Q52.29 6.07 51.31 7.17L51.31 7.17Q49.41 9.30 49.41 13.24L49.41 13.24Q49.41 17.83 51.82 20.08L51.82 20.08Q53.81 21.95 57.09 21.95L57.09 21.95Q60.80 21.95 63.11 20.37L63.11 20.37Q63.95 19.80 64.53 18.96L64.53 18.96L64.59 19.00L64.59 24.47Q61.60 26.95 56.54 26.95L56.54 26.95Q50.59 26.95 47.21 23.16L47.21 23.16Q43.96 19.55 43.96 13.59L43.96 13.59Q43.96 7.29 47.52 3.65L47.52 3.65Q51.11 0 57.95 0ZM70.12 26.46L70.12 0.41Q72.07 0.49 72.48 0.49L72.48 0.49L73.89 0.49Q74.92 0.49 75.55 0.33L75.55 0.33L75.53 26.46L70.12 26.46ZM89.20 26.95L89.20 26.95Q86.04 26.95 83.24 26.45L83.24 26.45L83.24 0.31Q85.82 0 89.23 0Q92.64 0 95.40 0.93Q98.16 1.86 100.02 3.57L100.02 3.57Q103.77 7.01 103.77 13.20L103.77 13.20Q103.77 20.14 99.59 23.73L99.59 23.73Q95.84 26.95 89.20 26.95ZM88.32 4.79L88.32 22.19Q89.59 22.42 90.86 22.42Q92.13 22.42 93.59 21.92Q95.06 21.43 96.13 20.37L96.13 20.37Q98.44 18.14 98.44 13.89L98.44 13.89Q98.44 6.89 93.34 5.29L93.34 5.29Q91.66 4.77 89.45 4.77L89.45 4.77L88.93 4.77Q88.63 4.77 88.32 4.79L88.32 4.79ZM114.61 21.78L122.58 21.78Q123.79 21.78 124.26 21.54L124.26 21.54L124.34 21.56L124.14 26.46L109.51 26.46L109.51 0.35Q110.04 0.39 110.68 0.41L110.68 0.41L112.05 0.45Q113.42 0.49 115.02 0.49L115.02 0.49Q119.49 0.49 123.87 0.33L123.87 0.33Q123.65 2.05 123.65 4.92L123.65 4.92Q123.65 5.23 123.69 5.39L123.69 5.39L123.65 5.45Q122.64 5.16 120.76 5.16L120.76 5.16L114.61 5.16L114.61 10.14L119.24 10.14Q121.39 10.14 121.82 10.02L121.82 10.02L121.88 14.84Q120.94 14.75 119.45 14.75L119.45 14.75L114.61 14.75L114.61 21.78Z" transform="translate(12.000000000000007 59.068) scale(1)"></path></svg>